# xmcd
#
# Track frame offsets:
#	150
#	31773
#	54428
#	67730
#	113955
#	139157
#	156020
#	186912
#	200205
#	246110
#	267202
#
# Disc length: 3723 seconds
#
# Revision: 0
# Processed by: cddbd v1.5.2PL0 Copyright (c) Steve Scherf et al.
# Submitted via: audiograbber 1.83.01
#
DISCID=980e890b
DTITLE=Young, Neil - Heart of Gold Live 10CD02
DYEAR=1974
DGENRE=POP-ROCK-JAZZ
TTITLE0=Citizen Kane junior blues (a.k.a. pushed over the end)
TTITLE1=Long may you run
TTITLE2=Greensleeves
TTITLE3=Ambulance blues
TTITLE4=Helpless
TTITLE5=Revolution blues
TTITLE6=On the beach
TTITLE7=Roll another number (for the road)
TTITLE8=Motion pictures
TTITLE9=Pardon my heart
TTITLE10=Dance, dance, dance
EXTD=
EXTT0=
EXTT1=
EXTT2=
EXTT3=
EXTT4=
EXTT5=
EXTT6=
EXTT7=
EXTT8=
EXTT9=
EXTT10=
PLAYORDER=
